HIERARCHY
ROOT Hips
{
	OFFSET -14.64140 90.27770 -84.91600
	CHANNELS 6 Xposition Yposition Zposition Zrotation Xrotation Yrotation
	JOINT Spine
	{
		OFFSET 0.00000 13.20850 -1.60436
		CHANNELS 3 Zrotation Xrotation Yrotation
		JOINT Spine1
		{
			OFFSET 0.00000 8.61716 0.00000
			CHANNELS 3 Zrotation Xrotation Yrotation
			JOINT Spine2
			{
				OFFSET 0.00000 8.61717 0.00000
				CHANNELS 3 Zrotation Xrotation Yrotation
				JOINT Spine3
				{
					OFFSET 0.00000 8.61717 0.00000
					CHANNELS 3 Zrotation Xrotation Yrotation
					JOINT Neck
					{
						OFFSET 0.00000 11.07920 1.10792
						CHANNELS 3 Zrotation Xrotation Yrotation
						JOINT Neck1
						{
							OFFSET 0.00000 7.08032 0.00000
							CHANNELS 3 Zrotation Xrotation Yrotation
							JOINT Head
							{
								OFFSET 0.00000 7.08031 0.00000
								CHANNELS 3 Zrotation Xrotation Yrotation
								End site
								{
									OFFSET 0.00000 0.00000 0.00000
								}
							}
						}
					}
					JOINT RightShoulder
					{
						OFFSET -0.01000 7.91373 5.19711
						CHANNELS 3 Zrotation Xrotation Yrotation
						JOINT RightArm
						{
							OFFSET -18.41580 0.00000 0.00000
							CHANNELS 3 Zrotation Xrotation Yrotation
							JOINT RightForeArm
							{
								OFFSET -29.11090 0.00000 0.00000
								CHANNELS 3 Zrotation Xrotation Yrotation
								JOINT RightHand
								{
									OFFSET -24.65040 0.00000 0.00000
									CHANNELS 3 Zrotation Xrotation Yrotation
									JOINT RightHandThumb1
									{
										OFFSET -5.35114 -0.85590 3.97906
										CHANNELS 3 Zrotation Xrotation Yrotation
										JOINT RightHandThumb2
										{
											OFFSET -4.52789 0.00000 0.00000
											CHANNELS 3 Zrotation Xrotation Yrotation
											JOINT RightHandThumb3
											{
												OFFSET -2.46976 0.00000 0.00000
												CHANNELS 3 Zrotation Xrotation Yrotation
												End site
												{
													OFFSET 0.00000 0.00000 0.00000
												}
											}
										}
									}
									JOINT RightHandIndex1
									{
										OFFSET -14.26970 0.00000 2.88139
										CHANNELS 3 Zrotation Xrotation Yrotation
										JOINT RightHandIndex2
										{
											OFFSET -5.48836 0.00000 0.00000
											CHANNELS 3 Zrotation Xrotation Yrotation
											JOINT RightHandIndex3
											{
												OFFSET -3.01859 0.00000 0.00000
												CHANNELS 3 Zrotation Xrotation Yrotation
												End site
												{
													OFFSET 0.00000 0.00000 0.00000
												}
											}
										}
									}
									JOINT RightHandMiddle1
									{
										OFFSET -14.26970 0.00000 -0.09147
										CHANNELS 3 Zrotation Xrotation Yrotation
										JOINT RightHandMiddle2
										{
											OFFSET -6.17441 0.00000 0.00000
											CHANNELS 3 Zrotation Xrotation Yrotation
											JOINT RightHandMiddle3
											{
												OFFSET -3.56743 0.00000 0.00000
												CHANNELS 3 Zrotation Xrotation Yrotation
												End site
												{
													OFFSET 0.00000 0.00000 0.00000
												}
											}
										}
									}
									JOINT RightHandRing1
									{
										OFFSET -12.69180 0.00000 -3.06433
										CHANNELS 3 Zrotation Xrotation Yrotation
										JOINT RightHandRing2
										{
											OFFSET -5.62556 0.00000 0.00000
											CHANNELS 3 Zrotation Xrotation Yrotation
											JOINT RightHandRing3
											{
												OFFSET -3.56744 0.00000 0.00000
												CHANNELS 3 Zrotation Xrotation Yrotation
												End site
												{
													OFFSET 0.00000 0.00000 0.00000
												}
											}
										}
									}
									JOINT RightHandPinky1
									{
										OFFSET -11.11390 0.00000 -6.03719
										CHANNELS 3 Zrotation Xrotation Yrotation
										JOINT RightHandPinky2
										{
											OFFSET -4.52789 0.00000 0.00000
											CHANNELS 3 Zrotation Xrotation Yrotation
											JOINT RightHandPinky3
											{
												OFFSET -2.46976 0.00000 0.00000
												CHANNELS 3 Zrotation Xrotation Yrotation
												End site
												{
													OFFSET 0.00000 0.00000 0.00000
												}
											}
										}
									}
								}
							}
						}
					}
					JOINT LeftShoulder
					{
						OFFSET 0.01000 7.91373 5.19711
						CHANNELS 3 Zrotation Xrotation Yrotation
						JOINT LeftArm
						{
							OFFSET 18.41580 0.00000 0.00000
							CHANNELS 3 Zrotation Xrotation Yrotation
							JOINT LeftForeArm
							{
								OFFSET 29.11090 0.00000 0.00000
								CHANNELS 3 Zrotation Xrotation Yrotation
								JOINT LeftHand
								{
									OFFSET 24.65040 0.00000 0.00000
									CHANNELS 3 Zrotation Xrotation Yrotation
									JOINT LeftHandThumb1
									{
										OFFSET 5.35114 -0.85590 3.97906
										CHANNELS 3 Zrotation Xrotation Yrotation
										JOINT LeftHandThumb2
										{
											OFFSET 4.52789 0.00000 0.00000
											CHANNELS 3 Zrotation Xrotation Yrotation
											JOINT LeftHandThumb3
											{
												OFFSET 2.46977 0.00000 0.00000
												CHANNELS 3 Zrotation Xrotation Yrotation
												End site
												{
													OFFSET 0.00000 0.00000 0.00000
												}
											}
										}
									}
									JOINT LeftHandIndex1
									{
										OFFSET 14.26970 0.00000 2.88139
										CHANNELS 3 Zrotation Xrotation Yrotation
										JOINT LeftHandIndex2
										{
											OFFSET 5.48836 0.00000 0.00000
											CHANNELS 3 Zrotation Xrotation Yrotation
											JOINT LeftHandIndex3
											{
												OFFSET 3.01859 0.00000 0.00000
												CHANNELS 3 Zrotation Xrotation Yrotation
												End site
												{
													OFFSET 0.00000 0.00000 0.00000
												}
											}
										}
									}
									JOINT LeftHandMiddle1
									{
										OFFSET 14.26970 0.00000 -0.09147
										CHANNELS 3 Zrotation Xrotation Yrotation
										JOINT LeftHandMiddle2
										{
											OFFSET 6.17440 0.00000 0.00000
											CHANNELS 3 Zrotation Xrotation Yrotation
											JOINT LeftHandMiddle3
											{
												OFFSET 3.56744 0.00000 0.00000
												CHANNELS 3 Zrotation Xrotation Yrotation
												End site
												{
													OFFSET 0.00000 0.00000 0.00000
												}
											}
										}
									}
									JOINT LeftHandRing1
									{
										OFFSET 12.69180 0.00000 -3.06433
										CHANNELS 3 Zrotation Xrotation Yrotation
										JOINT LeftHandRing2
										{
											OFFSET 5.62556 0.00000 0.00000
											CHANNELS 3 Zrotation Xrotation Yrotation
											JOINT LeftHandRing3
											{
												OFFSET 3.56744 0.00000 0.00000
												CHANNELS 3 Zrotation Xrotation Yrotation
												End site
												{
													OFFSET 0.00000 0.00000 0.00000
												}
											}
										}
									}
									JOINT LeftHandPinky1
									{
										OFFSET 11.11390 0.00000 -6.03719
										CHANNELS 3 Zrotation Xrotation Yrotation
										JOINT LeftHandPinky2
										{
											OFFSET 4.52789 0.00000 0.00000
											CHANNELS 3 Zrotation Xrotation Yrotation
											JOINT LeftHandPinky3
											{
												OFFSET 2.46976 0.00000 0.00000
												CHANNELS 3 Zrotation Xrotation Yrotation
												End site
												{
													OFFSET 0.00000 0.00000 0.00000
												}
											}
										}
									}
								}
							}
						}
					}
					JOINT pCube4
					{
						OFFSET 0.00000 10.91090 1.10792
						CHANNELS 3 Zrotation Xrotation Yrotation
						End site
						{
							OFFSET 0.00000 0.00000 0.00000
						}
					}
				}
			}
		}
	}
	JOINT RightUpLeg
	{
		OFFSET -9.98441 0.00000 0.00000
		CHANNELS 3 Zrotation Xrotation Yrotation
		JOINT RightLeg
		{
			OFFSET 0.00000 -42.11790 0.00000
			CHANNELS 3 Zrotation Xrotation Yrotation
			JOINT RightFoot
			{
				OFFSET 0.00000 -45.00020 -0.00001
				CHANNELS 3 Zrotation Xrotation Yrotation
				JOINT RightForeFoot
				{
					OFFSET 0.00000 -3.74820 0.00000
					CHANNELS 3 Zrotation Xrotation Yrotation
					JOINT RightToeBase
					{
						OFFSET 0.00000 0.06325 14.43120
						CHANNELS 3 Zrotation Xrotation Yrotation
						End site
						{
							OFFSET 0.00000 0.00000 0.00000
						}
					}
				}
			}
		}
	}
	JOINT LeftUpLeg
	{
		OFFSET 9.98441 0.00000 0.00000
		CHANNELS 3 Zrotation Xrotation Yrotation
		JOINT LeftLeg
		{
			OFFSET 0.00000 -42.11800 0.00000
			CHANNELS 3 Zrotation Xrotation Yrotation
			JOINT LeftFoot
			{
				OFFSET 0.00000 -45.00070 0.00000
				CHANNELS 3 Zrotation Xrotation Yrotation
				JOINT LeftForeFoot
				{
					OFFSET 0.00000 -3.74824 0.00000
					CHANNELS 3 Zrotation Xrotation Yrotation
					JOINT LeftToeBase
					{
						OFFSET 0.00000 0.06325 14.43110
						CHANNELS 3 Zrotation Xrotation Yrotation
						End site
						{
							OFFSET 0.00000 0.00000 0.00000
						}
					}
				}
			}
		}
	}
}
MOTION
Frames: 4
Frame Time: 0.050000
0.02856767901010871 0.014945282763326087 -0.02792213448378606 0.013841269167509837 -0.03626393583897199 -0.03356978555124509 -4.22356995618028 5.812684443247776 -0.5558775767080637 -0.569337135213141 3.1526416409603124 0.3003051698834689 -0.7189893752617527 -0.45908665943302346 -1.7251867384471964 -1.1519096462728848 0.1498973897776217 -1.0056212461082155 -1.852146066836442 9.716293182549226 3.9894545377253707 -0.34907775728340146 -1.1530807659128501 7.019388522752368 -1.444976041726923 -15.589865853978138 0.6807462907471705 4.11798815766846 -0.25093976557626124 -10.078609684112854 65.59740045662896 7.327387672079304 22.33158107413102 46.68353525291526 17.973635621123268 102.99898789060569 26.532320960282675 0.06181212876427622 -11.029509521935301 4.492049990555262 -0.16273417229389409 -1.5904732475109806 0.023190528360991003 0.0017801153555270714 -56.26908818121175 -0.02385413445520163 0.004312567828185779 -56.26710803803731 -38.80459129036185 0.013580126557265391 -0.003165406270009294 0.01914976360790124 -0.04833477276610468 -0.0029348398509095874 0.005119344182533569 0.002047465049006063 -0.020154947643909283 -36.68513937279941 0.02958730751584589 0.007455230145702538 -0.02825628908775465 0.046021558764505546 0.003527978488073484 -0.014343886095438775 0.011052813125842007 0.011563900599882786 -19.7621568622864 -0.04591633799341788 0.036990817981171764 -0.011626823923140588 0.01916941637311573 -0.04397192364109071 0.045728155401963164 -0.020611836774468057 0.02898071543868281 24.034203489168497 0.0040395135935722805 -0.04269883943228519 28.89537653692413 0.00978869759003342 -0.022281233633788474 28.847201395390925 -0.019661546533208663 0.019114726575297922 1.8227559884281677 0.8793745791106661 9.332598683855155 -64.92959938279355 12.869878099798939 -31.449136277917226 -85.08123049264135 12.071528575081903 -120.58000654699123 -31.95908811497272 -5.501322562578417 3.1793056420406196 -0.4585109993170531 0.03271570558450903 -8.16817341233214 -0.035096518629155755 0.044810850965921536 44.56463841242239 -0.018663340684904026 0.04842928526634523 44.55936982982968 12.485318746652375 0.03267242177315711 0.0046781536324973045 -0.03262648481980441 -0.0024597635193119244 0.04441866085307315 -0.034627910281911325 -0.009667476492118146 0.04633284121432735 11.131747484332516 0.018666771976772044 0.005521679777799117 0.03376514092228109 -0.04000707667446258 0.0017981452166129608 -0.022897231183822135 0.04725676673977481 0.03138292852485818 4.750680244611349 0.006286267538381648 0.037081058256587585 -0.009392880449118467 0.020182615716571563 -0.038223925813384615 0.015636066217450558 -0.014053776558968206 -0.02539083809083588 -5.556113600773197 -0.010842962250569752 -0.027934784478877206 -6.728981348719049 0.004310917240204401 -0.03837464321204171 -6.740898056253928 0.008142919369322994 -0.029232007333110988 -0.03813339413505221 -0.021741648296424176 0.007139812197268803 8.039426842827547 3.4694003679968834 -19.18583807742275 0.00540957712608114 10.438812391072732 -0.018640510256021352 -5.584930463385302 -15.701494660596559 3.1749135783446594 0.01093078064756375 0.016881550678243602 -0.006591420184618488 0.013175273538506593 4.712695011813974 0.0012577271762189942 12.492059824018146 -8.234800983240246 6.883042298044585 0.0017239680480665687 46.409134669787726 -0.016884661932795936 -4.312287171039796 -14.752161055801755 -3.809063459508169 -0.04488546544985543 -0.04910111818359261 0.012113054380330085 -0.012102961564288178 -10.732388481757626 0.04356798402089969 
-2.0163847001323343e-05 -0.036912896485301876 -0.03015267242138846 0.045586099273925214 0.022173270010188206 0.04545275237552538 -4.0121136096595515 5.574185979590991 -0.6165839886066399 -0.6194550238418682 3.1856844241770963 0.32205672886357656 -0.671116574856549 -0.5726345016182176 -1.667261380680118 -1.2028662768451308 0.1260464664878943 -1.0036031236229397 -1.7925574471152401 9.820590441467802 4.0146640669070806 -0.3243044173978348 -1.2154613933984963 7.298402726392577 -1.3969254999385436 -15.749928999527453 0.694324210630302 3.7479951107192586 -0.19119669919282992 -10.250962807570556 66.30627119412863 8.299587392876433 21.58883235389597 47.83815394290957 18.736510794728172 102.72138157475307 26.159000205307347 0.013581006089835989 -11.112425243318912 4.561397897799982 -0.10203498950654077 -1.5491459932146048 0.008367737278973384 -0.004677062946931628 -56.211967800837535 -0.009101899624040802 -0.010822325280072804 -56.251241730775625 -38.75156895095777 0.027966171433362 -0.0029448782987850854 0.029102793761567335 -0.015089931973162158 0.030693540029359787 0.021101355669135728 -0.009704073209603571 -0.04368223382425643 -36.695900346524546 -0.01763672987337939 0.012555331205450573 0.017673053793695985 -0.004622364888449944 0.0019258953616609214 -0.04097587700319664 0.0007841624598919412 -0.0019200917864428417 -19.73048676856283 0.04104839996632812 -0.0341949852684074 -0.035229065646883655 0.04933740010082939 -0.03419112069160234 0.04764225062607759 0.0015199763244576143 -0.011766241514875207 24.043572943928446 0.014435598026690487 0.005147643635769496 28.90656330595821 -0.01769073807684518 0.03951019141236677 28.870296448928215 0.02534733372089955 -0.01528496261458638 2.1274126731054497 0.9165774576610306 9.380205530449686 -65.7653534827113 14.078266450453492 -30.850887000035186 -87.71865049802335 12.0902805578341 -121.59899453672912 -32.312261684244106 -6.148643761208497 3.9095969576919676 -0.42786118879275065 0.08462850980863357 -8.127293525741566 0.0016101653098235223 -0.0061682830579648075 44.60369194806747 -0.012460920741254143 0.0401649979361161 44.60802504526222 12.411747830955646 -0.005140518399101217 -0.03266830323955273 0.04170049940148236 -0.010192967246081543 -0.009704689608988105 -0.01633003850305478 -0.0005973765457916239 0.04944947416967469 11.11899264895973 0.01769313847327372 0.021531259662105857 0.035797388006467014 0.0006903432343599524 -0.04050902447496822 -0.0061910129421930415 0.04395841904007854 0.0024573034055543823 4.806723941807755 0.017789305434752586 0.02919837945703907 0.004362303073352421 -0.04542979949239767 0.0025184065461670508 0.012798854917684356 0.02127679176664563 -0.038939442508265296 -5.552874487287805 0.005356333662804374 -0.0005293216249404124 -6.712516446656703 -0.018132737124948718 -0.0478491588999106 -6.69752418501285 -0.03971082356054021 0.0013373413584379208 0.03183635297421843 -0.04353829231335404 0.039187391118931124 8.036543860278766 3.5339255462628643 -19.237042366276427 0.000144497660160544 10.387019282350616 0.047569772896484216 -5.6421230418838375 -15.709384842250575 3.221418673483783 -0.046823666477702156 0.015613832689489156 -0.032023158431655534 0.02187205223759415 4.699205503465855 0.012764414256658425 12.428357111489866 -8.21117892489599 6.881244518357424 -0.023755414989145636 46.40796527216584 -0.031515659827131316 -4.369595655782786 -14.713501580777107 -3.847189845762501 0.026445520087444375 -0.008990952331053105 -0.02396925917553983 0.013708958943599471 -10.769598217481798 -0.0010716815600766846 
-0.04432128882481663 0.003656819587608903 0.03895937013098096 0.0026917181404239017 0.017949973951795685 0.039279407489868315 -3.7393044354122313 5.24296070096831 -0.6560608784716065 -0.6004012217643941 3.2624356314379797 0.3503484393496184 -0.6549497823347329 -0.6634202271567642 -1.6109887663593074 -1.1627332929592629 0.07021902942525829 -0.9050089522457119 -1.7859523225302851 10.029246651705767 3.940372831836382 -0.312800755462096 -1.237059622180573 7.249384884201606 -1.3807434114423927 -15.938477170926445 0.6757482692388729 3.238248646974387 0.03657460477372131 -10.42350843907157 67.41244706843975 9.036063704875525 21.190429875796035 48.2623804835835 19.3687196955139 102.32498494776853 25.442499375209433 -0.01052876345638649 -11.081530652515957 4.518738387434124 -0.13203777965443741 -1.6429211562674313 0.04271521421349292 -0.024895802421297294 -56.27607836982112 -0.010579191018524241 0.01480500912004671 -56.26654523251243 -38.72487441217485 0.027057127940678178 -0.012950910531678394 -0.006237504081395278 -0.028546208536871325 0.017298401070514793 -0.047358970091732774 -6.218235871144447e-05 -0.03165468834877407 -36.67608255576504 0.022456452351760088 -0.010165647731617091 -0.002831698431249629 0.026026812332774856 -0.001613104252967651 -0.0035681259291621458 -0.025026233561321044 -0.04831456375789033 -19.78192190680018 0.0031701027483312244 0.02929307236382671 0.041824113471728916 0.04536479274235908 -0.0437267881563079 -0.015561025686242146 0.029198186874404643 -0.033390587335129174 24.08406760793048 0.007926472047618522 -0.03358592880960553 28.886743759847977 0.03524285688516575 0.03419878028789062 28.83338509482061 -0.016661636418021805 0.0030435560195815636 2.690144656838453 1.0711478059514126 9.431442133503477 -66.84871315854136 15.31593420916991 -30.458045334888123 -89.54193490583216 12.323319877100374 -122.33385444245627 -32.28992254339501 -6.657334365399833 4.591880661602782 -0.4823094862649261 0.08328640780181829 -8.151868396885803 -0.007705638103932786 -0.0008400429717711037 44.583681180775834 -0.004335966089738437 -0.04816623994694914 44.57158942914658 12.484860742814142 0.014832441702555745 0.04614564074521616 -0.026926090079390067 0.009378064397263032 0.004159909418209846 0.02500869043580148 0.03213687226008597 0.012020324454820803 11.057823753417281 0.03362601084049358 -0.007961854368959364 -0.04924856364005828 0.029490222192037497 0.023526063360352224 -0.030931572954245347 -0.015114465586729825 -0.02447818315236116 4.780144511409532 -0.013319292075880371 0.004152071349985182 0.00713228180939028 -0.031988196144756016 0.012174566802921527 0.030393087972003404 -0.0121952435541032 -0.00951165730367708 -5.590901987528612 -0.0005657538101425273 -0.006273112524325777 -6.696959553352562 0.03376982044038395 -0.04850842241319578 -6.701459844232917 0.036721827927443995 -0.02922268091159079 -0.040507931052634324 -9.58277298162073e-05 0.0007468911362364239 8.017312798859578 3.4833686713191923 -19.24272248977716 0.041657294072514416 10.41001825498069 0.018660341672434695 -5.636336561824898 -15.704510153629782 3.23042428640967 0.04047088111774408 0.013984391561072108 -0.04602806485221154 0.029755700922691065 4.716448564516387 0.01030246138986206 12.439042484910233 -8.263282460003717 6.8967974472895595 0.005698269348677756 46.403963515900564 0.04285658378818344 -4.370046132979499 -14.777558788608331 -3.8024520023819406 -0.04257204008215231 -0.006931381299797138 0.029375055736021317 0.005684654421627916 -10.794727044194762 -0.010813633400624578 
0.009239184155865983 0.015382337320553167 0.03293853686072047 -0.02576594789609381 -0.002725921462328655 -0.049744444529032025 -3.399879769494127 4.829614365986035 -0.6747632749149425 -0.6215185921059132 3.276223719934552 0.2938064768940908 -0.7211945673880991 -0.7283968298711415 -1.5092626968750267 -1.1919009376633203 0.07477265140866952 -0.9192193293034109 -1.7130885271059948 10.22224433630958 3.8252245082842897 -0.18560155016193056 -1.2233696025716734 7.100338371922838 -1.253173536927535 -16.093501513552923 0.6200716682636064 2.466092096697672 0.3136611961885148 -10.666000487685928 68.91215100953391 9.3405345673053 20.664534881924283 48.478679453947784 20.059799930240814 101.88925368892488 24.792972151507048 -0.07119291642675199 -10.955289102731582 4.526058250480336 -0.1455003402958234 -1.6349653878260328 0.016369238716696675 0.04325224352227357 -56.23688249271614 -0.01119133083857979 -0.016040356918834205 -56.26952264535134 -38.753862420706255 -0.029024445515901092 0.014187768948798501 -0.04396722446045852 0.042018834111894214 -0.020834665352143893 0.0010313423548729962 -0.007186077187187136 -0.028907985248253023 -36.67752795992009 -0.013071114755298225 -0.013058562292100204 -0.0056845507496126515 -0.020705164923121057 -0.04177399750474198 -0.005406331067217198 0.015979130804284286 0.004803438588552233 -19.715512858653994 -0.020976145971153375 0.02251052544581398 -0.00822556578011261 -0.008952410444341016 0.026825882340722917 0.003405077656823102 -0.004172076000295286 0.013886773970714016 24.045707692470465 -0.04519521908858381 0.012640245490489505 28.84355020962352 0.019987467314601583 0.04029821256269461 28.844526599477543 -0.007795652408588382 -0.025283773933248866 3.3042040437208917 1.2089846452283943 9.649945984362834 -67.95439695361871 16.18156823603009 -29.764457999339605 -90.45853633140163 13.02454102492326 -123.06214341491041 -32.3628601585797 -7.295019669811561 5.26765721858826 -0.4939456583488611 0.0547806196927706 -8.135537943948703 0.03339473025841137 0.03398908421583629 44.551741354967824 -0.02615997431186583 -0.0283416426241115 44.54821314933562 12.434070100804187 -0.004007309822781733 0.02801937516728764 0.02041794962520359 0.006519186582583601 -0.01861223227390134 0.01210878184657356 0.006245611455182926 0.022487929584941814 11.107335080127658 -0.00439230545039656 0.0366975098308424 0.0150793678861351 -0.043390312423774155 0.03401014372394506 0.015072654395595703 0.024446409521931733 0.004879429547956633 4.77485269206088 -0.002134328368838716 -0.026265532113789975 -0.010040988811438173 0.02163014791154256 -0.01331370125606801 0.018982605959286754 0.029608164065887968 0.025327822101963895 -5.5782827023338974 -0.020039948935758903 -0.008326576486937366 -6.7342097662155656 0.01242656047955094 0.004268001026329925 -6.679534471147033 -0.016491105822918992 -0.02298961572841936 0.004615580814807593 0.005878541247819633 -0.02112540094215855 8.044478093489994 3.4816347582473215 -19.19069485343464 0.019452131599538534 10.427781687249787 0.012834582562942173 -5.59209476068594 -15.677139926208646 3.1723980229996678 -0.0007629189849437977 0.023517006680274125 0.024426878586731298 0.02985892740913634 4.733491065728414 -0.028865767680977806 12.41157136132832 -8.233805795986388 6.931863078396201 0.02848209240758462 46.42878775770953 -0.029822592141882855 -4.335389401803525 -14.701260690941968 -3.8286228819542996 -0.01070020613289222 0.03585512043573128 0.013540596795844916 0.01767872256940987 -10.740804422696321 -0.04842237297972138 
